<svg width="440" height="168" viewBox="0 0 440 168" fill="none" xmlns="http://www.w3.org/2000/svg">
<g clip-path="url(#clip0_465_53856)">
<path d="M84 168C130.392 168 168 130.392 168 84C168 37.6081 130.392 0 84 0C37.6081 0 0 37.6081 0 84C0 130.392 37.6081 168 84 168Z" fill="white"/>
<path d="M213.3 35.7C234.5 35.7 249.8 51 249.8 70.3C249.8 89.6 234.5 104.9 213.3 104.9H194.1L193.6 104.4V36.2L194.1 35.7H213.3ZM199.4 99.0999H213.2C230.3 99.0999 243.1 86.4 243.1 70.3C243.1 54.2 230.3 41.5 213.2 41.5H199.4V99.0999Z" fill="white"/>
<path d="M63 49.6001H41.5V118.5H63C83.8 118.5 99.5 103.7 99.5 84.0001C99.5 64.4001 83.8 49.6001 63 49.6001ZM63 115H45.1V53.1001H63C81 53.1001 95.1 66.7001 95.1 84.0001C95.1 101.3 81 115 63 115Z" fill="black"/>
<path d="M105.1 49.6001C84.3 49.6001 68.6 64.4001 68.6 84.1001C68.6 103.8 84.3 118.6 105.1 118.6H126.6V49.6001H105.1ZM122.9 115H105.1C87.1 115 73 101.4 73 84.0001C73 66.6001 87.1 53.1001 105.1 53.1001H122.9V115V115Z" fill="black"/>
<path d="M334.2 70.2001C334.2 90.1001 317.8 106.3 297.7 106.3C277.6 106.3 261.2 90.1001 261.2 70.2001C261.2 50.3001 277.6 34.1001 297.7 34.1001C317.9 34.2001 334.2 50.4001 334.2 70.2001ZM267.8 70.2001C267.8 86.8001 281.3 100.2 297.7 100.2C314.2 100.2 327.7 86.8001 327.7 70.2001C327.7 53.6001 314.2 40.2001 297.7 40.2001C281.3 40.2001 267.8 53.7001 267.8 70.2001Z" fill="white"/>
<path d="M376.7 47.4C373.5 43 370 40.2 364.5 40.2C358.6 40.2 353.8 44.8 353.8 51C353.8 64.1 386.7 63.8999 386.7 85.0999C386.7 96.8999 377.2 106.3 365.5 106.3C355.6 106.3 348.2 100.9 344.8 92L348.9 88.9H349.9C352.9 96.3 358.6 100.3 365.5 100.3C373.8 100.3 380.1 93.6999 380.1 85.0999C380.1 69.2999 347.3 69.7 347.3 51C347.3 41.7 354.9 34.2 364.5 34.2C372.4 34.2 378.3 38.5999 381.8 44.5999L377.8 47.5H376.7V47.4Z" fill="white"/>
<path d="M429.2 47.4C426 43 422.5 40.2 417 40.2C411.1 40.2 406.3 44.8 406.3 51C406.3 64.1 439.2 63.8999 439.2 85.0999C439.2 96.8999 429.7 106.3 418 106.3C408.1 106.3 400.7 100.9 397.3 92L401.4 88.9H402.4C405.4 96.3 411.1 100.3 418 100.3C426.3 100.3 432.6 93.6999 432.6 85.0999C432.6 69.2999 399.8 69.7 399.8 51C399.8 41.7 407.4 34.2 417 34.2C424.9 34.2 430.8 38.5999 434.3 44.5999L430.3 47.5H429.2V47.4Z" fill="white"/>
<path d="M208.9 128.3L206.9 130.1C205.8 129 204.4 128.4 202.6 128.4C200.9 128.4 199.5 129 198.3 130.1C197.2 131.2 196.6 132.7 196.6 134.4C196.6 136.1 197.2 137.6 198.3 138.7C199.4 139.8 200.9 140.4 202.6 140.4C204.2 140.4 205.6 139.9 206.7 138.9V135.8H202V133.1H209.6V139.9C208 141.9 205.5 143.1 202.7 143.1C200.2 143.1 198.1 142.3 196.3 140.6C194.6 138.9 193.7 136.8 193.7 134.3C193.7 131.8 194.6 129.7 196.3 128C198 126.3 200.2 125.5 202.7 125.5C205.2 125.5 207.2 126.6 208.9 128.3Z" fill="white"/>
<path d="M219.6 143L226.7 126.1H229.3L236.4 143H233.2L231.8 139.6H224.3L222.9 143H219.6ZM225.2 137.1H230.8L228 130.2L225.2 137.1Z" fill="white"/>
<path d="M247.8 137.9C248.7 139.6 250.1 140.5 252 140.5C254.1 140.5 254.9 139.4 254.9 138.3C254.9 137.5 254.6 137 253.9 136.6C253.2 136.1 252.7 135.9 251.4 135.4C249.8 134.8 248.9 134.4 248 133.6C247 132.8 246.6 131.7 246.6 130.3C246.6 128.9 247.1 127.8 248.1 127C249.1 126.2 250.4 125.7 251.8 125.7C254.1 125.7 255.9 126.6 257 128.4L254.8 129.9C254.1 128.9 253.1 128.4 251.8 128.4C250.5 128.4 249.5 129.2 249.5 130.2C249.5 130.9 249.8 131.2 250.2 131.7C250.5 131.9 251.1 132.2 251.5 132.4L252.4 132.7L253.4 133.1C255 133.8 256.1 134.5 256.8 135.2C257.5 136 257.9 137 257.9 138.2C257.9 141.2 255.8 143.2 252 143.2C248.9 143.2 246.6 141.7 245.5 139.3L247.8 137.9Z" fill="white"/>
<path d="M271.6 143V128.8H267V126H279.2V128.7H274.6V143H271.6Z" fill="white"/>
<path d="M289.7 143V126H296.3C297.8 126 299.1 126.5 300.2 127.6C301.3 128.6 301.8 129.9 301.8 131.4C301.8 133.6 300.6 135.4 298.7 136.2L302.8 143H299.4L295.8 137H292.8V143H289.7V143ZM292.7 134.2H295.9C297.6 134.2 298.7 133.1 298.7 131.4C298.7 129.8 297.6 128.7 296.2 128.7H292.7V134.2Z" fill="white"/>
<path d="M315.6 140.8C313.9 139.1 313 137 313 134.6C313 132.1 313.9 130 315.6 128.4C317.3 126.7 319.4 125.9 321.9 125.9C324.4 125.9 326.5 126.7 328.2 128.4C329.9 130.1 330.8 132.2 330.8 134.6C330.8 137.1 329.9 139.2 328.2 140.8C326.5 142.5 324.3 143.3 321.8 143.3C319.4 143.3 317.3 142.4 315.6 140.8ZM317.7 138.8C318.8 139.9 320.3 140.5 321.9 140.5C323.6 140.5 325 139.9 326.1 138.8C327.2 137.6 327.8 136.2 327.8 134.5C327.8 132.8 327.2 131.4 326.1 130.2C325 129 323.6 128.5 321.9 128.5C320.2 128.5 318.8 129.1 317.7 130.2C316.6 131.4 316 132.8 316 134.5C316 136.2 316.5 137.7 317.7 138.8Z" fill="white"/>
<path d="M366.6 128.8L364.5 130.6C363.3 129.2 361.7 128.5 359.9 128.5C358.2 128.5 356.8 129.1 355.6 130.2C354.5 131.3 353.9 132.8 353.9 134.5C353.9 136.2 354.5 137.7 355.6 138.8C356.7 139.9 358.2 140.5 359.9 140.5C361.8 140.5 363.4 139.8 364.6 138.4L366.6 140.2C364.9 142.1 362.5 143.3 359.9 143.3C357.4 143.3 355.3 142.5 353.5 140.8C351.8 139.1 350.9 137 350.9 134.5C350.9 132 351.8 129.9 353.5 128.2C355.2 126.5 357.4 125.7 359.9 125.7C362.6 125.7 364.8 126.8 366.6 128.8Z" fill="white"/>
<path d="M379 143V126H382V140.2H388.7V142.9H379V143Z" fill="white"/>
<path d="M399.8 126H402.8V136.1C402.8 139 404.2 140.4 406.6 140.4C409 140.4 410.4 139 410.4 136.1V126H413.4V136.4C413.4 138.6 412.8 140.2 411.5 141.4C410.2 142.6 408.6 143.1 406.6 143.1C404.6 143.1 402.9 142.5 401.6 141.4C400.3 140.2 399.7 138.6 399.7 136.4V126H399.8Z" fill="white"/>
<path d="M427.1 143V126H433.2C434.5 126 435.7 126.4 436.6 127.2C437.5 128 438 129 438 130.3C438 131.9 437.2 133.2 435.8 133.7C438 134.1 439.2 135.7 439.2 137.9C439.2 139.3 438.7 140.5 437.7 141.5C436.7 142.4 435.5 142.9 434 142.9H427.1V143ZM430.1 132.8H432.8C434.1 132.8 435 132 435 130.7C435 129.6 434.1 128.7 432.8 128.7H430.1V132.8ZM430.1 140.2H433.5C435 140.2 436.1 139.2 436.1 137.8C436.1 136.4 435 135.4 433.4 135.4H430V140.2H430.1Z" fill="white"/>
</g>
<defs>
<clipPath id="clip0_465_53856">
<rect width="439.1" height="168" fill="white"/>
</clipPath>
</defs>
</svg>
